<svg width="303" height="47" viewBox="0 0 303 47" fill="none" xmlns="http://www.w3.org/2000/svg">
<path d="M3.18741 34.5798C6.61347 36.6524 9.32048 37.6886 11.3084 37.6886C12.5773 37.6886 13.2118 37.2445 13.2118 36.3563C13.2118 35.7218 12.1121 34.897 9.91264 33.8819C4.62551 31.7247 1.98194 28.1929 1.98194 23.2865C1.98194 20.1565 3.12396 17.7667 5.408 16.1171C7.69204 14.4676 10.4202 13.6428 13.5925 13.6428C16.8071 13.6428 19.5141 13.9811 21.7135 14.6579C23.9553 15.3346 25.0761 16.2229 25.0761 17.3226C25.0761 18.2531 24.6109 19.4798 23.6803 21.0024C22.7921 22.5251 22.1788 23.3499 21.8404 23.4768C20.0216 22.4617 18.0548 21.9541 15.94 21.9541C14.7979 21.9541 14.2269 22.356 14.2269 23.1596C14.2269 23.6672 14.4384 24.1113 14.8614 24.492C15.3267 24.8303 16.1514 25.2744 17.3358 25.8243C18.5201 26.3319 19.4929 26.7971 20.2543 27.2201C21.0579 27.6431 21.9461 28.2352 22.919 28.9966C24.9492 30.6039 25.9644 32.6976 25.9644 35.2777C25.9644 38.6615 24.8435 41.4108 22.6017 43.5256C20.36 45.5982 16.9762 46.6345 12.4505 46.6345C9.44737 46.6345 6.71921 46.1269 4.26598 45.1118C1.81275 44.0966 0.586139 42.7008 0.586139 40.9244C0.586139 39.74 0.86107 38.4923 1.41093 37.1811C2.00309 35.8699 2.59525 35.0028 3.18741 34.5798ZM30.1007 14.6579C30.1007 14.1926 31.9195 13.96 35.557 13.96C39.1946 13.96 41.0134 14.1926 41.0134 14.6579V33.184C41.0134 35.2988 41.6901 36.3563 43.0436 36.3563C44.0587 36.3563 45.2008 35.9122 46.4697 35.0239V14.6579C46.4697 14.2349 48.2673 14.0234 51.8625 14.0234C55.4578 14.0234 57.2554 14.2349 57.2554 14.6579V35.468H58.905C60.3431 35.468 61.0621 36.8427 61.0621 39.592C61.0621 40.9878 60.7661 42.4048 60.1739 43.8429C59.328 45.7039 58.1859 46.6345 56.7478 46.6345C53.9139 46.6345 51.8202 45.4713 50.4667 43.1449L50.4033 43.2084C47.8232 45.4924 45.0527 46.6345 42.0919 46.6345C37.9891 46.6345 34.9649 45.6193 33.0192 43.5891C31.0735 41.5165 30.1007 38.1116 30.1007 33.3743V14.6579ZM66.2612 34.5798C69.6873 36.6524 72.3943 37.6886 74.3822 37.6886C75.6512 37.6886 76.2856 37.2445 76.2856 36.3563C76.2856 35.7218 75.1859 34.897 72.9864 33.8819C67.6993 31.7247 65.0557 28.1929 65.0557 23.2865C65.0557 20.1565 66.1978 17.7667 68.4818 16.1171C70.7658 14.4676 73.494 13.6428 76.6663 13.6428C79.8809 13.6428 82.5879 13.9811 84.7873 14.6579C87.0291 15.3346 88.1499 16.2229 88.1499 17.3226C88.1499 18.2531 87.6847 19.4798 86.7541 21.0024C85.8659 22.5251 85.2526 23.3499 84.9142 23.4768C83.0954 22.4617 81.1286 21.9541 79.0138 21.9541C77.8718 21.9541 77.3007 22.356 77.3007 23.1596C77.3007 23.6672 77.5122 24.1113 77.9352 24.492C78.4005 24.8303 79.2253 25.2744 80.4096 25.8243C81.5939 26.3319 82.5667 26.7971 83.3281 27.2201C84.1317 27.6431 85.0199 28.2352 85.9928 28.9966C88.023 30.6039 89.0382 32.6976 89.0382 35.2777C89.0382 38.6615 87.9173 41.4108 85.6756 43.5256C83.4338 45.5982 80.05 46.6345 75.5243 46.6345C72.5212 46.6345 69.793 46.1269 67.3398 45.1118C64.8866 44.0966 63.6599 42.7008 63.6599 40.9244C63.6599 39.74 63.9349 38.4923 64.4847 37.1811C65.0769 35.8699 65.6691 35.0028 66.2612 34.5798ZM104.087 45.5559C104.087 45.9366 102.311 46.1269 98.7577 46.1269C95.2471 46.1269 93.4918 45.8308 93.4918 45.2387V1.77845C93.4918 1.48236 94.1474 1.27088 95.4586 1.14399C96.7698 1.0171 97.8695 0.953652 98.7577 0.953652C102.311 0.953652 104.087 1.33433 104.087 2.09567V14.7848C106.456 14.0657 108.253 13.7062 109.48 13.7062C112.695 13.7062 115.232 14.5733 117.094 16.3075C118.955 17.9994 119.885 21.1716 119.885 25.8243V45.4924C119.885 45.8731 118.236 46.0634 114.936 46.0634C111.214 45.9366 109.353 45.7251 109.353 45.429V26.776C109.353 24.7034 108.676 23.6672 107.323 23.6672C106.392 23.6672 105.314 24.1113 104.087 24.9995V45.5559ZM136.887 45.6193C136.887 45.9577 134.941 46.1269 131.05 46.1269C127.201 46.1269 125.276 45.9789 125.276 45.6828V14.531C125.276 14.2349 127.201 14.0869 131.05 14.0869C134.941 14.0869 136.887 14.2138 136.887 14.4676V45.6193ZM136.887 10.7243C136.887 11.0203 134.941 11.1684 131.05 11.1684C127.201 11.1684 125.276 11.0415 125.276 10.7877V1.65155C125.276 1.22858 127.201 1.0171 131.05 1.0171C134.941 1.0171 136.887 1.14399 136.887 1.39777V10.7243ZM155.915 34.5798C159.341 36.6524 162.048 37.6886 164.036 37.6886C165.305 37.6886 165.94 37.2445 165.94 36.3563C165.94 35.7218 164.84 34.897 162.64 33.8819C157.353 31.7247 154.71 28.1929 154.71 23.2865C154.71 20.1565 155.852 17.7667 158.136 16.1171C160.42 14.4676 163.148 13.6428 166.32 13.6428C169.535 13.6428 172.242 13.9811 174.441 14.6579C176.683 15.3346 177.804 16.2229 177.804 17.3226C177.804 18.2531 177.339 19.4798 176.408 21.0024C175.52 22.5251 174.907 23.3499 174.568 23.4768C172.749 22.4617 170.783 21.9541 168.668 21.9541C167.526 21.9541 166.955 22.356 166.955 23.1596C166.955 23.6672 167.166 24.1113 167.589 24.492C168.054 24.8303 168.879 25.2744 170.064 25.8243C171.248 26.3319 172.221 26.7971 172.982 27.2201C173.786 27.6431 174.674 28.2352 175.647 28.9966C177.677 30.6039 178.692 32.6976 178.692 35.2777C178.692 38.6615 177.571 41.4108 175.33 43.5256C173.088 45.5982 169.704 46.6345 165.178 46.6345C162.175 46.6345 159.447 46.1269 156.994 45.1118C154.541 44.0966 153.314 42.7008 153.314 40.9244C153.314 39.74 153.589 38.4923 154.139 37.1811C154.731 35.8699 155.323 35.0028 155.915 34.5798ZM187.143 22.9693C185.959 20.8544 185.366 19.1414 185.366 17.8302C185.366 16.4767 185.726 15.6096 186.445 15.2289C188.856 14.1715 192.155 13.6428 196.342 13.6428C200.572 13.6428 203.554 14.6367 205.288 16.6247C207.022 18.5704 207.89 21.4677 207.89 25.3167V35.3411H210.047C210.766 35.3411 211.316 35.7641 211.696 36.6101C212.119 37.456 212.331 38.6192 212.331 40.0996C212.331 41.58 211.95 43.0392 211.189 44.4773C210.47 45.9154 209.476 46.6345 208.207 46.6345C205.923 46.6345 204.083 46.0211 202.687 44.7945C202.053 44.287 201.566 43.6737 201.228 42.9546C199.282 45.4078 196.258 46.6345 192.155 46.6345C189.067 46.6345 186.466 45.5347 184.351 43.3353C182.236 41.1358 181.179 38.5346 181.179 35.5315C181.179 28.6371 185.303 25.1899 193.551 25.1899H197.04V24.5554C197.04 23.4557 196.85 22.7578 196.469 22.4617C196.131 22.1233 195.306 21.9541 193.995 21.9541C192.388 21.9541 190.104 22.2925 187.143 22.9693ZM192.218 34.6432C192.218 35.5738 192.472 36.2928 192.98 36.8004C193.487 37.2657 194.122 37.4983 194.883 37.4983C195.687 37.4983 196.406 37.1811 197.04 36.5466V31.6613H195.264C193.234 31.6613 192.218 32.6553 192.218 34.6432ZM229.182 45.6193C229.182 45.9154 227.659 46.0634 224.614 46.0634C220.384 45.9366 218.269 45.7039 218.269 45.3655V24.8092H216.62C215.52 24.8092 214.801 23.8786 214.463 22.0176C214.378 21.4677 214.336 20.9179 214.336 20.368C214.336 19.0568 214.589 17.7456 215.097 16.4344C215.858 14.5733 217.043 13.6428 218.65 13.6428C220.257 13.6428 221.695 14.0234 222.964 14.7848C224.233 15.5461 225.079 16.3075 225.502 17.0688C228.167 14.7848 231.339 13.6428 235.019 13.6428C238.699 13.6428 241.364 14.6367 243.013 16.6247C244.663 18.6127 245.487 21.8695 245.487 26.3953V45.429C245.487 45.9366 243.669 46.1903 240.031 46.1903C236.436 46.1903 234.638 45.9366 234.638 45.429V27.0932C234.638 24.9784 233.898 23.9209 232.418 23.9209C231.995 23.9209 231.403 24.1113 230.641 24.492C229.88 24.8303 229.393 25.0841 229.182 25.2533V45.6193ZM265.459 45.6193C265.459 46.1269 263.682 46.3807 260.13 46.3807C255.9 46.2115 253.785 45.9366 253.785 45.5559V23.0962H250.549C249.703 23.0962 249.28 21.6369 249.28 18.7184C249.28 17.9571 249.344 17.0265 249.471 15.9268C249.64 14.8271 249.957 14.2772 250.422 14.2772H253.785V8.69401C253.785 7.84807 255.561 7.4251 259.114 7.4251C262.71 7.4251 264.507 7.76348 264.507 8.44023V12.5007L264.571 14.2772H269.964C270.683 14.2772 271.042 15.7576 271.042 18.7184C271.042 21.6792 270.683 23.1596 269.964 23.1596H265.459V45.6193ZM276.953 42.2567C274.331 39.3382 273.019 35.2988 273.019 30.1386C273.019 24.9784 274.331 20.939 276.953 18.0205C279.618 15.102 283.192 13.6428 287.675 13.6428C292.159 13.6428 295.712 15.102 298.334 18.0205C300.957 20.939 302.268 24.9784 302.268 30.1386C302.268 35.2988 300.957 39.3382 298.334 42.2567C295.712 45.1752 292.159 46.6345 287.675 46.6345C283.192 46.6345 279.618 45.1752 276.953 42.2567ZM287.675 24.2382C285.307 24.2382 284.122 26.1838 284.122 30.0752C284.122 33.9665 285.307 35.9122 287.675 35.9122C290.086 35.9122 291.292 33.9665 291.292 30.0752C291.292 26.1838 290.086 24.2382 287.675 24.2382Z" fill="#E5650C"/>
</svg>
